<svg width="1440" height="358" viewBox="0 0 1440 358" fill="none" xmlns="http://www.w3.org/2000/svg">
<path d="M389.403 357.144C122.604 366.599 -64.6986 295.42 -125 258.649V74.3873H1927V211.553V352.655C1927 352.655 1919.9 350.838 1723.4 287.439C1433.11 193.783 1152.15 219.352 1036.38 249.86C931.885 281.681 656.202 347.688 389.403 357.144Z" fill="#EDEDFF" fill-opacity="0.3"/>
<path d="M358.489 277.954C170.481 287.416 38.4931 216.187 -4 179.39V-5H1442V132.261V273.462C1442 273.462 1437 271.644 1298.53 208.201C1093.96 114.479 895.978 140.066 814.397 170.595C740.764 202.439 546.496 268.492 358.489 277.954Z" fill="#EDEDFF" fill-opacity="0.98"/>
<path d="M362.489 330.071C174.481 339.533 42.4931 268.304 0 231.507V47.1169H1446V184.378V325.578C1446 325.578 1441 323.76 1302.53 260.318C1097.96 166.596 899.978 192.182 818.397 222.712C744.764 254.556 550.496 320.609 362.489 330.071Z" fill="#EDEDFF" fill-opacity="0.69"/>
</svg>
